<svg width="24" height="25" viewBox="0 0 24 25" fill="none" xmlns="http://www.w3.org/2000/svg">
<rect width="24" height="25" fill="#F5F5F5"/>
<g clip-path="url(#clip0_0_1)">
<rect width="1440" height="2000" transform="translate(-732 -1874)" fill="white"/>
<path d="M-732 -1478H708V126H-732V-1478Z" fill="black"/>
<g clip-path="url(#clip1_0_1)">
<path d="M12 0.859375C8.87041 0.859375 8.47969 0.874375 7.25089 0.931375C6.02401 0.991375 5.18881 1.19238 4.45441 1.48937C3.69697 1.79537 3.05377 2.20637 2.41345 2.87337C1.77313 3.54037 1.37761 4.20937 1.08481 4.99937C0.799691 5.76437 0.605771 6.63438 0.549131 7.91237C0.491531 9.19238 0.480011 9.59937 0.480011 12.8594C0.480011 16.1194 0.494411 16.5264 0.549131 17.8064C0.606731 19.0834 0.799691 19.9544 1.08481 20.7194C1.37857 21.5074 1.77313 22.1784 2.41345 22.8454C3.05377 23.5114 3.69601 23.9244 4.45441 24.2294C5.18977 24.5254 6.02497 24.7284 7.25089 24.7874C8.47969 24.8474 8.87041 24.8594 12 24.8594C15.1296 24.8594 15.5203 24.8444 16.7491 24.7874C17.9751 24.7274 18.8112 24.5254 19.5456 24.2294C20.3021 23.9234 20.9463 23.5114 21.5866 22.8454C22.2259 22.1784 22.6224 21.5104 22.9152 20.7194C23.1994 19.9544 23.3943 19.0834 23.4509 17.8064C23.5085 16.5264 23.52 16.1194 23.52 12.8594C23.52 9.59937 23.5056 9.19238 23.4509 7.91237C23.3933 6.63538 23.1994 5.76337 22.9152 4.99937C22.6215 4.21037 22.2259 3.54037 21.5866 2.87337C20.9463 2.20637 20.305 1.79438 19.5456 1.48937C18.8112 1.19238 17.9751 0.990375 16.7491 0.931375C15.5203 0.871375 15.1296 0.859375 12 0.859375ZM12 3.01938C15.0749 3.01938 15.4416 3.03537 16.656 3.09037C17.7792 3.14538 18.3888 3.33938 18.7939 3.50537C19.3335 3.72237 19.7155 3.98238 20.1207 4.40138C20.5229 4.82138 20.7725 5.22038 20.9808 5.78237C21.1383 6.20437 21.3264 6.83938 21.3773 8.00938C21.432 9.27538 21.4445 9.65537 21.4445 12.8594C21.4445 16.0634 21.4301 16.4444 21.3735 17.7094C21.3149 18.8794 21.1277 19.5144 20.9693 19.9364C20.7543 20.4984 20.5095 20.8964 20.1063 21.3184C19.704 21.7374 19.3152 21.9974 18.7815 22.2144C18.3783 22.3784 17.7591 22.5744 16.6359 22.6274C15.4128 22.6844 15.0528 22.6974 11.9712 22.6974C8.88865 22.6974 8.52865 22.6824 7.30657 22.6234C6.18241 22.5624 5.56321 22.3674 5.16001 22.2024C4.61377 21.9784 4.23841 21.7234 3.83617 21.3034C3.43201 20.8844 3.17377 20.4794 2.97217 19.9234C2.81377 19.5034 2.62753 18.8584 2.56897 17.6884C2.52577 16.4284 2.51041 16.0394 2.51041 12.8444C2.51041 9.64837 2.52577 9.25838 2.56897 7.98338C2.62753 6.81337 2.81377 6.16937 2.97217 5.74937C3.17377 5.17937 3.43201 4.78938 3.83617 4.36838C4.23841 3.94938 4.61377 3.67938 5.16001 3.47038C5.56321 3.30438 6.16897 3.10938 7.29217 3.04938C8.51617 3.00437 8.87617 2.98938 11.9568 2.98938L12 3.01938ZM12 6.69737C8.73121 6.69737 6.08449 9.45737 6.08449 12.8594C6.08449 16.2644 8.73409 19.0214 12 19.0214C15.2688 19.0214 17.9155 16.2614 17.9155 12.8594C17.9155 9.45438 15.2659 6.69737 12 6.69737ZM12 16.8594C9.87841 16.8594 8.16001 15.0694 8.16001 12.8594C8.16001 10.6494 9.87841 8.85938 12 8.85938C14.1216 8.85938 15.84 10.6494 15.84 12.8594C15.84 15.0694 14.1216 16.8594 12 16.8594ZM19.5322 6.45437C19.5322 7.24937 18.912 7.89437 18.1498 7.89437C17.3866 7.89437 16.7674 7.24837 16.7674 6.45437C16.7674 5.66037 17.3875 5.01538 18.1498 5.01538C18.9111 5.01438 19.5322 5.66037 19.5322 6.45437Z" fill="#FFFCFC"/>
</g>
</g>
<defs>
<clipPath id="clip0_0_1">
<rect width="1440" height="2000" fill="white" transform="translate(-732 -1874)"/>
</clipPath>
<clipPath id="clip1_0_1">
<rect width="24" height="24" fill="white" transform="translate(0 0.859375)"/>
</clipPath>
</defs>
</svg>
