<svg width="24" height="25" viewBox="0 0 24 25" fill="none" xmlns="http://www.w3.org/2000/svg">
<rect width="24" height="25" fill="#F5F5F5"/>
<g clip-path="url(#clip0_0_1)">
<rect width="1440" height="2000" transform="translate(-684 -1874)" fill="white"/>
<path d="M-684 -1478H756V126H-684V-1478Z" fill="black"/>
<path d="M23.4759 5.42847C22.6263 5.81747 21.719 6.08247 20.7639 6.20347C21.7373 5.59247 22.4861 4.62947 22.8403 3.48047C21.9274 4.03547 20.9155 4.43947 19.8384 4.66447C18.9783 3.70547 17.7523 3.10547 16.3911 3.10547C13.7827 3.10547 11.6679 5.30847 11.6679 8.02247C11.6679 8.41247 11.7111 8.78747 11.7898 9.14647C7.86337 8.95347 4.38337 6.98947 2.05441 4.02047C1.64449 4.74247 1.41505 5.58147 1.41505 6.49547C1.41505 8.20547 2.25025 9.70847 3.51553 10.5915C2.74081 10.5655 2.01217 10.3435 1.37665 9.97547V10.0365C1.37665 12.4215 3.00193 14.4105 5.16481 14.8635C4.76833 14.9745 4.34977 15.0345 3.92065 15.0345C3.61921 15.0345 3.33025 15.0045 3.04129 14.9485C3.64705 16.9015 5.38849 18.3255 7.46113 18.3655C5.84833 19.6845 3.80449 20.4705 1.60321 20.4705C1.22881 20.4705 0.855371 20.4475 0.480011 20.4035C2.58145 21.7975 5.05729 22.6125 7.73473 22.6125C16.4266 22.6125 21.1738 15.1165 21.1738 8.62647C21.1738 8.41747 21.1738 8.20647 21.1594 7.99647C22.0819 7.30747 22.8874 6.43647 23.521 5.44847L23.4759 5.42847Z" fill="#FFFCFC"/>
</g>
<defs>
<clipPath id="clip0_0_1">
<rect width="1440" height="2000" fill="white" transform="translate(-684 -1874)"/>
</clipPath>
</defs>
</svg>
